<svg width="375" height="138" viewBox="0 0 375 138" fill="none" xmlns="http://www.w3.org/2000/svg">
<path fill-rule="evenodd" clip-rule="evenodd" d="M150.127 66.8166C147.367 66.8166 145.127 69.0548 145.127 71.8125C145.127 74.5762 147.367 76.8124 150.127 76.8124C152.889 76.8124 155.126 74.5762 155.126 71.8125C155.126 69.0548 152.889 66.8166 150.127 66.8166ZM353.573 63.148C356.851 63.148 359.249 64.9828 360.82 66.8166V57.9575C358.245 56.2115 355.142 55.5125 352.444 55.5125C344.156 55.5125 336.955 61.4464 336.955 71.6551C336.955 81.4301 343.5 87.8018 352.573 87.8018C355.191 87.8018 358.07 87.4054 360.82 85.5323V76.8437C359.249 78.4616 356.765 80.1652 353.573 80.1652C348.689 80.1652 345.764 76.5451 345.764 71.9174C345.764 66.8993 348.863 63.148 353.573 63.148ZM337.892 56.387H327.856L318.648 69.2121V56.387H310.098L310.101 86.9283H318.648V73.7925L327.502 86.9283H338.199L326.285 71.176L337.892 56.387ZM284.846 74.7124V56.387H276.599V86.9283H284.977L296.802 68.6019V86.9283H305.048V56.387H296.669L284.846 74.7124ZM260.065 70.128H257.626V63.1067H260.065C263.731 63.1067 264.252 65.0675 264.252 66.5957C264.252 67.9039 263.861 70.128 260.065 70.128ZM261.939 56.387H249.07V86.9283H257.626V76.8437H261.939C270.581 76.8437 273.069 70.83 273.069 66.5957C273.069 62.4057 270.625 56.387 261.939 56.387ZM223.592 63.7139H230.307V86.9283H238.862V63.7139H245.579V56.387H223.592V63.7139ZM199.896 74.7124V56.387H191.652V86.9283H200.031L211.85 68.6019V86.9283H220.099V56.387H211.723L199.896 74.7124ZM174.417 80.8158H170.753V74.4047H174.417C177.123 74.4047 178.695 75.1915 178.695 77.5931C178.695 80.0341 177.081 80.8158 174.417 80.8158ZM175.248 68.2963H170.753V63.7139H184.758V56.387H162.202L162.201 86.9283L175.248 86.9283C177.47 86.9283 187.246 87.013 187.246 77.461C187.246 68.2529 177.56 68.2963 175.248 68.2963ZM114.338 71.6551C114.338 81.4301 120.883 87.8018 129.957 87.8018C132.578 87.8018 135.457 87.4054 138.207 85.5323V76.8437C136.631 78.4616 134.145 80.1652 130.961 80.1652C126.073 80.1652 123.152 76.5451 123.152 71.9174C123.152 66.8993 126.248 63.148 130.961 63.148C134.232 63.148 136.631 64.9828 138.207 66.8166V57.9575C135.626 56.2115 132.532 55.5125 129.826 55.5125C121.536 55.5125 114.338 61.4464 114.338 71.6551ZM96.4336 63.4103H101.105V86.9283H109.003V56.387H96.4336V63.4103Z" fill="#231F20"/>
<path fill-rule="evenodd" clip-rule="evenodd" d="M47.5793 35.0001C45.0777 35.0001 42.6446 35.2815 40.3004 35.802V68.6028C40.3004 72.6223 43.5777 75.9005 47.5985 75.9005C51.6172 75.9005 54.8935 72.6223 54.8935 68.6048C54.8935 64.7436 51.8765 61.5744 48.0837 61.3222V55.4811C55.0923 55.7352 60.732 61.533 60.732 68.6048C60.732 75.8369 54.832 81.7396 47.5985 81.7396C40.3619 81.7396 34.4629 75.8369 34.4629 68.6028V37.658C33.6337 38.01 32.8237 38.4003 32.0299 38.8199V68.6028C32.0309 77.1754 39.0254 84.1665 47.5985 84.1665C56.1726 84.1665 63.164 77.1754 63.164 68.6048C63.164 60.1935 56.4359 53.3054 48.0837 53.0461V47.207C59.6497 47.4682 68.9995 56.9799 68.9995 68.6048C68.9995 80.3941 59.3854 90.0056 47.5985 90.0056C35.8085 90.0056 26.1914 80.3941 26.1914 68.6028V42.6932C18.747 48.8491 14 58.1581 14 68.5776C14 87.1219 29.034 102.159 47.5803 102.159C66.1297 102.159 81.1596 87.1219 81.1596 68.5776C81.1596 50.0333 66.1297 35.0001 47.5793 35.0001Z" fill="#D91935"/>
</svg>
