<svg width="235" height="131" viewBox="0 0 235 131" fill="none" xmlns="http://www.w3.org/2000/svg">
<g clip-path="url(#clip0_41_799)">
<path d="M73.3515 57.5706H69.5821L68.845 59.6611H66.1143L70.2187 49.3436H72.7316L76.8361 59.6611H74.0886L73.3515 57.5706ZM70.403 55.2273H72.5306L71.4752 52.2264L70.403 55.2273ZM85.4806 57.3177V59.6611H77.858V49.3436H80.371V57.3177H85.4806ZM86.7538 49.3436H94.3764V51.6869H89.2667V53.3391H93.3712V55.6824H89.2667V57.3177H94.3764V59.6611H86.7538V49.3436ZM99.7875 56.5591L97.6934 59.6611H94.7617L98.33 54.3843L94.9292 49.3436H97.8609L99.7875 52.2096L101.714 49.3436H104.646L101.262 54.3843L104.813 59.6611H101.882L99.7875 56.5591ZM112.034 57.5706H108.264L107.527 59.6611H104.797L108.901 49.3436H111.414L115.518 59.6611H112.771L112.034 57.5706ZM109.085 55.2273H111.213L110.158 52.2264L109.085 55.2273ZM123.074 49.3436H125.587V59.6611H123.074L119.053 53.6257V59.6611H116.54V49.3436H119.053L123.074 55.379V49.3436ZM131.115 59.6611H127.514V49.3436H131.115C134.248 49.3436 136.393 51.4003 136.393 54.5023C136.393 57.6886 134.131 59.6611 131.115 59.6611ZM130.026 51.6869V57.3177H131.115C132.891 57.3177 133.88 56.1882 133.88 54.5023C133.88 54.1146 133.829 53.7606 133.729 53.4065C133.293 52.1758 132.338 51.6869 131.115 51.6869H130.026ZM137.951 49.3436H145.573V51.6869H140.463V53.3391H144.568V55.6824H140.463V57.3177H145.573V59.6611H137.951V49.3436ZM149.51 51.7206V54.182H151.855C152.626 54.182 153.078 53.7268 153.078 52.9513C153.078 52.1758 152.626 51.7206 151.855 51.7206H149.51ZM153.313 55.851C153.782 56.4917 154.251 57.1323 154.737 57.7561C155.206 58.3798 155.675 59.0205 156.144 59.6611H153.078C152.475 58.8519 151.889 58.0427 151.303 57.2334C150.716 56.4411 150.113 55.6319 149.51 54.8227V59.6611H146.997V49.3436H151.855C153.765 49.3436 155.39 50.8103 155.39 52.749C155.39 54.1146 154.553 55.3116 153.313 55.851ZM164.487 59.6611H160.885V49.3436H164.487C167.62 49.3436 169.764 51.4003 169.764 54.5023C169.764 57.6886 167.503 59.6611 164.487 59.6611ZM163.398 51.6869V57.3177H164.487C166.263 57.3177 167.251 56.1882 167.251 54.5023C167.251 54.1146 167.201 53.7606 167.101 53.4065C166.665 52.1758 165.71 51.6869 164.487 51.6869H163.398ZM171.322 49.3436H178.945V51.6869H173.835V53.3391H177.94V55.6824H173.835V57.3177H178.945V59.6611H171.322V49.3436ZM182.882 51.7206V54.182H185.227C185.998 54.182 186.45 53.7268 186.45 52.9513C186.45 52.1758 185.998 51.7206 185.227 51.7206H182.882ZM186.685 55.851C187.154 56.4917 187.623 57.1323 188.109 57.7561C188.578 58.3798 189.047 59.0205 189.516 59.6611H186.45C185.847 58.8519 185.261 58.0427 184.674 57.2334C184.088 56.4411 183.485 55.6319 182.882 54.8227V59.6611H180.369V49.3436H185.227C187.137 49.3436 188.762 50.8103 188.762 52.749C188.762 54.1146 187.924 55.3116 186.685 55.851ZM193.302 59.6611V55.8342C191.275 55.379 190.102 53.6931 190.102 51.6701V49.3436H192.615V51.6701C192.615 52.8839 193.336 53.6257 194.542 53.6257C195.781 53.6257 196.468 52.9008 196.468 51.6701V49.3436H198.981V51.6701C198.981 53.7268 197.792 55.3621 195.815 55.8342V59.6611H193.302ZM206.637 49.3436H209.15V55.4464C209.15 58.127 207.24 59.7454 204.711 59.7454C202.114 59.7454 200.271 58.0258 200.271 55.4464V49.3436H202.784V55.4464C202.784 56.6603 203.505 57.402 204.711 57.402C205.95 57.402 206.637 56.6771 206.637 55.4464V49.3436ZM219.973 53.3391V59.071C218.783 59.5262 217.292 59.7791 216.019 59.7791C212.752 59.7791 210.558 57.8066 210.558 54.5529C210.558 50.9957 213.188 49.2593 216.404 49.2593C216.622 49.2593 216.857 49.2593 217.125 49.2761C217.376 49.293 217.644 49.3267 217.929 49.3436C218.448 49.411 218.967 49.4784 219.47 49.6302V52.2096C219.286 52.1253 219.085 52.0578 218.85 51.9904C218.599 51.9398 218.348 51.8892 218.08 51.8387C217.543 51.7375 216.974 51.7038 216.421 51.7038C214.293 51.7038 213.07 52.3613 213.07 54.5529C213.07 56.694 214.193 57.3346 216.103 57.3346C216.304 57.3346 216.522 57.3177 216.756 57.3009C216.974 57.284 217.208 57.2672 217.46 57.2503V55.6824H215.282V53.3391H219.973ZM221.547 49.3436H224.06V59.6611H221.547V49.3436ZM232.487 49.3436H235V59.6611H232.487L228.466 53.6257V59.6611H225.953V49.3436H228.466L232.487 55.379V49.3436Z" fill="#111111"/>
<path d="M92.7908 77.8291L92.2098 75.9252H89.4389L88.8877 77.7992C88.694 78.4438 87.7108 78.2489 87.9194 77.5893C88.694 74.9658 89.4538 72.2973 90.2136 69.6438C90.3029 69.359 90.5413 69.2091 90.7797 69.2091C91.0031 69.2091 91.2415 69.359 91.3309 69.6438L93.6995 77.5893C93.8634 78.159 92.9845 78.4738 92.7908 77.8291ZM90.8095 71.2329L89.7368 74.9208H91.9268C91.5543 73.6615 91.2117 72.5821 90.8095 71.2329ZM98.6954 77.7692V69.7038C98.6954 69.299 98.9784 69.2091 99.187 69.2091H101.571C103.537 69.2091 104.505 70.1535 104.505 72.0125V75.8503C104.505 77.0196 103.597 78.2489 101.615 78.2489H99.187C98.9784 78.2489 98.6954 78.129 98.6954 77.7692ZM103.522 75.8503V72.0125C103.522 70.7832 102.867 70.2135 101.571 70.2135H99.6786V77.2745H101.615C102.524 77.2745 103.522 76.7797 103.522 75.8503ZM109.769 77.7692V69.7038C109.769 69.299 110.052 69.2091 110.261 69.2091H112.644C114.611 69.2091 115.579 70.1535 115.579 72.0125V75.8503C115.579 77.0196 114.671 78.2489 112.689 78.2489H110.261C110.052 78.2489 109.769 78.129 109.769 77.7692ZM114.596 75.8503V72.0125C114.596 70.7832 113.941 70.2135 112.644 70.2135H110.753V77.2745H112.689C113.598 77.2745 114.596 76.7797 114.596 75.8503ZM134.479 77.7542V71.068L132.111 77.8142C131.977 78.1889 131.485 78.2789 131.336 77.8142L129.042 71.068V77.7542C129.042 78.069 128.804 78.2339 128.55 78.2339C128.297 78.2339 128.044 78.069 128.044 77.7542V69.7038C128.044 69.4189 128.252 69.2091 128.55 69.2091H129.027C129.355 69.2091 129.534 69.4489 129.608 69.6738C130.323 71.8176 130.979 73.7215 131.709 75.8803L133.869 69.6288C133.943 69.4189 134.077 69.2091 134.39 69.2091H134.986C135.418 69.2091 135.478 69.4489 135.478 69.6888V77.7542C135.478 78.069 135.224 78.2339 134.971 78.2339C134.718 78.2339 134.479 78.069 134.479 77.7542ZM145.27 77.8291L144.689 75.9252H141.918L141.367 77.7992C141.174 78.4438 140.19 78.2489 140.399 77.5893C141.174 74.9658 141.933 72.2973 142.693 69.6438C142.783 69.359 143.021 69.2091 143.259 69.2091C143.483 69.2091 143.721 69.359 143.81 69.6438L146.179 77.5893C146.343 78.159 145.464 78.4738 145.27 77.8291ZM143.289 71.2329L142.216 74.9208H144.406C144.034 73.6615 143.691 72.5821 143.289 71.2329ZM152.158 75.6104V77.7542C152.158 78.084 151.905 78.2339 151.667 78.2339C151.413 78.2339 151.175 78.084 151.175 77.7542V69.7038C151.175 69.4039 151.339 69.2091 151.667 69.2091H153.678C154.244 69.2091 156.031 69.374 156.031 71.3978V73.2717C156.031 74.4111 155.614 75.1307 154.661 75.4455L155.674 77.4993C155.883 77.9041 155.57 78.2339 155.242 78.2339C155.063 78.2339 154.84 78.114 154.721 77.8591L153.633 75.6104H152.158ZM155.048 73.2717V71.3978C155.048 71.038 154.914 70.2135 153.678 70.2135H152.158V74.606H153.544C154.274 74.606 155.048 74.4411 155.048 73.2717ZM161.325 77.7542V69.6888C161.325 69.374 161.564 69.2091 161.802 69.2091C162.04 69.2091 162.294 69.374 162.294 69.6888V73.3167L165.169 69.4339C165.541 68.9242 166.39 69.4189 166.003 69.9436L164.335 72.2523L166.375 77.5743C166.51 77.9341 166.241 78.2339 165.929 78.2339C165.75 78.2339 165.541 78.099 165.437 77.8142C164.856 76.315 164.23 74.7559 163.649 73.2268L162.294 74.9958V77.7542C162.294 78.069 162.04 78.2339 161.802 78.2339C161.564 78.2339 161.325 78.069 161.325 77.7542ZM171.625 77.7092V69.7338C171.625 69.389 171.893 69.2091 172.146 69.2091H175.572C175.9 69.2091 176.064 69.4489 176.064 69.7038C176.064 69.9586 175.9 70.2135 175.572 70.2135H172.623V73.1218H174.962C175.304 73.1218 175.468 73.3617 175.468 73.6165C175.468 73.8714 175.289 74.1412 174.962 74.1412H172.623V77.2445H175.572C175.885 77.2445 176.049 77.4993 176.049 77.7392C176.049 77.9941 175.885 78.2339 175.572 78.2339H172.146C171.893 78.2339 171.625 78.144 171.625 77.7092ZM180.896 69.2091H185.395C185.708 69.2091 185.857 69.4639 185.857 69.7188C185.857 69.9736 185.708 70.2135 185.395 70.2135H183.697V77.7542C183.697 78.069 183.443 78.2339 183.19 78.2339C182.937 78.2339 182.698 78.069 182.698 77.7542V70.2135H180.896C180.583 70.2135 180.434 69.9736 180.434 69.7188C180.434 69.4639 180.583 69.2091 180.896 69.2091ZM190.689 77.7692V69.6888C190.689 69.374 190.927 69.2091 191.165 69.2091C191.404 69.2091 191.657 69.374 191.657 69.6888V77.7692C191.657 78.4138 190.689 78.4138 190.689 77.7692ZM202.105 69.6888V77.7542C202.105 78.069 201.867 78.2339 201.628 78.2339C201.45 78.2339 201.211 78.099 201.107 77.9041C199.99 75.7004 199.156 74.0063 198.038 71.7876V77.7542C198.038 78.069 197.8 78.2339 197.547 78.2339C197.308 78.2339 197.055 78.069 197.055 77.7542V69.6888C197.055 69.1641 197.8 69.1341 197.964 69.4489L201.107 75.7004V69.6888C201.107 69.374 201.345 69.2091 201.599 69.2091C201.852 69.2091 202.105 69.374 202.105 69.6888ZM207.399 75.5954V71.9825C207.399 69.8237 208.576 69.1791 210.304 69.1791C211.734 69.1791 213.12 69.9137 213.12 71.4278C213.12 71.7576 212.881 71.9225 212.628 71.9225C212.375 71.9225 212.121 71.7576 212.121 71.4278C212.121 70.6632 211.287 70.1535 210.304 70.1535C208.948 70.1535 208.382 70.7082 208.382 71.9825V75.5954C208.382 76.8997 209.097 77.3044 210.304 77.3044C211.734 77.3044 212.241 76.6148 212.241 75.2806V74.651H210.9C210.587 74.651 210.423 74.4111 210.423 74.1562C210.423 73.9014 210.587 73.6465 210.9 73.6465H212.762C213.06 73.6465 213.224 73.9464 213.224 74.1562V75.2806C213.224 77.4394 212.39 78.2789 210.304 78.2789C208.338 78.2789 207.399 77.5593 207.399 75.5954Z" fill="#F07038"/>
<path fill-rule="evenodd" clip-rule="evenodd" d="M6.99292 39.8233L26.9861 4.47812L46.9794 39.8233L26.9861 9.91583L6.99292 39.8233ZM6.99292 86.5876L26.9861 130.089L46.9794 83.8687L26.9861 124.652L6.99292 86.5876Z" fill="#111111"/>
<path d="M6.93396 71.5892V78.4336H0V71.5892H6.93396ZM19.52 54.8337C26.1744 54.8633 29.5013 57.041 29.5013 61.367V73.5448C29.5013 75.7966 29.7663 77.4262 30.2963 78.4336H23.9365C23.701 77.7225 23.5538 76.9818 23.4949 76.2114C21.6399 78.1077 19.0784 79.0559 15.8101 79.0559C13.4252 79.0559 11.5334 78.4484 10.1349 77.2336C8.73631 76.0188 8.03703 74.3299 8.03703 72.167C8.03703 70.0633 8.69951 68.4337 10.0245 67.2781C11.3789 66.0633 13.8374 65.2929 17.4001 64.9671C19.9322 64.7004 21.5369 64.3671 22.2141 63.9671C22.8913 63.5671 23.2299 62.9523 23.2299 62.1226C23.2299 61.0856 22.9207 60.3152 22.3024 59.8116C21.6841 59.308 20.6536 59.0561 19.2109 59.0561C17.8859 59.0561 16.8848 59.3301 16.2076 59.8783C15.5304 60.4264 15.1329 61.3079 15.0151 62.5226H8.74367C8.89088 60.0041 9.92141 58.093 11.8352 56.7893C13.7489 55.4856 16.3105 54.8337 19.52 54.8337ZM14.3085 71.9003C14.3085 73.8559 15.5893 74.8336 18.1508 74.8336C21.5074 74.804 23.2003 73.0707 23.2299 69.6337V67.1892C22.7293 67.6929 21.4632 68.0633 19.4316 68.3003C17.665 68.5077 16.3695 68.8707 15.5451 69.3892C14.7207 69.9078 14.3085 70.7448 14.3085 71.9003ZM53.6145 46.7004V78.4336H47.6522V75.5003H47.5638C46.2094 77.8707 43.8981 79.0559 40.6299 79.0559C37.4794 79.0559 34.9842 77.9003 33.1439 75.5892C31.3035 73.2781 30.3835 70.3301 30.3835 66.7448C30.3835 63.2485 31.3184 60.3892 33.188 58.167C35.0577 55.9448 37.4941 54.8337 40.4974 54.8337C41.8812 54.8337 43.1841 55.1226 44.406 55.7004C45.6279 56.2781 46.5775 57.13 47.2547 58.2559H47.343V46.7004H53.6145ZM36.655 66.9226C36.655 69.0262 37.1482 70.7818 38.1345 72.1892C39.1208 73.5966 40.4679 74.3003 42.1756 74.3003C43.9717 74.3003 45.3187 73.6411 46.2167 72.3225C47.1148 71.004 47.5638 69.1892 47.5638 66.8781C47.5638 64.567 47.0927 62.7744 46.1505 61.5003C45.2083 60.2263 43.8686 59.5892 42.1315 59.5892C40.3355 59.5892 38.9737 60.2559 38.0462 61.5892C37.1187 62.9226 36.655 64.7003 36.655 66.9226Z" fill="#111111"/>
</g>
<defs>
<clipPath id="clip0_41_799">
<rect width="235" height="130.089" fill="white"/>
</clipPath>
</defs>
</svg>
