<svg width="105" height="106" viewBox="0 0 105 106" fill="none" xmlns="http://www.w3.org/2000/svg">
<path d="M92.9127 23.7797L53.5377 10.6547C52.8641 10.4302 52.1359 10.4302 51.4623 10.6547L12.0873 23.7797C11.4339 23.9975 10.8657 24.4154 10.463 24.9741C10.0604 25.5329 9.8437 26.2041 9.84375 26.8928V59.7053C9.84375 60.5756 10.1895 61.4102 10.8048 62.0255C11.4202 62.6409 12.2548 62.9866 13.125 62.9866C13.9952 62.9866 14.8298 62.6409 15.4452 62.0255C16.0605 61.4102 16.4063 60.5756 16.4063 59.7053V31.4456L30.1834 36.0352C26.523 41.9489 25.359 49.0734 26.947 55.8445C28.535 62.6157 32.7452 68.4798 38.6531 72.1495C31.2703 75.0452 24.8883 80.2829 20.2207 87.4442C19.978 87.805 19.8093 88.2104 19.7247 88.6369C19.64 89.0635 19.6409 89.5026 19.7275 89.9287C19.814 90.3549 19.9843 90.7596 20.2286 91.1193C20.4729 91.4791 20.7863 91.7867 21.1505 92.0242C21.5148 92.2618 21.9226 92.4246 22.3503 92.5031C22.778 92.5817 23.217 92.5745 23.6419 92.4819C24.0668 92.3893 24.469 92.2131 24.8252 91.9637C25.1814 91.7143 25.4845 91.3965 25.7168 91.029C31.8979 81.5461 41.6596 76.1116 52.5 76.1116C63.3404 76.1116 73.1022 81.5461 79.2832 91.029C79.7645 91.7442 80.5079 92.2414 81.3528 92.4129C82.1976 92.5844 83.0761 92.4166 83.7982 91.9456C84.5203 91.4746 85.028 90.7384 85.2116 89.896C85.3952 89.0537 85.2399 88.1729 84.7793 87.4442C80.1117 80.2829 73.7051 75.0452 66.3469 72.1495C72.2492 68.48 76.4553 62.6196 78.0431 55.8535C79.6308 49.0873 78.4705 41.9676 74.8166 36.0557L92.9127 30.0264C93.5662 29.8087 94.1346 29.3909 94.5374 28.8322C94.9402 28.2735 95.157 27.6021 95.157 26.9133C95.157 26.2245 94.9402 25.5532 94.5374 24.9945C94.1346 24.4357 93.5662 24.0179 92.9127 23.8002V23.7797ZM72.1875 49.8616C72.1884 52.9741 71.4513 56.0424 70.0367 58.8149C68.6221 61.5873 66.5703 63.9849 64.0497 65.8109C61.5291 67.6368 58.6115 68.8391 55.5362 69.3191C52.461 69.7991 49.3157 69.5432 46.3585 68.5722C43.4013 67.6013 40.7165 65.9431 38.5243 63.7336C36.3321 61.5241 34.695 58.8263 33.7473 55.8616C32.7996 52.8969 32.5683 49.7497 33.0725 46.6783C33.5766 43.6069 34.8018 40.6988 36.6475 38.1926L51.4623 43.1145C52.1359 43.339 52.8641 43.339 53.5377 43.1145L68.3525 38.1926C70.8454 41.5723 72.1895 45.662 72.1875 49.8616Z" fill="#F07038"/>
</svg>
