<svg width="105" height="106" viewBox="0 0 105 106" fill="none" xmlns="http://www.w3.org/2000/svg">
<path fill-rule="evenodd" clip-rule="evenodd" d="M39.375 7.20532C36.3292 7.20532 33.4081 8.41528 31.2543 10.569C29.1006 12.7228 27.8906 15.6439 27.8906 18.6897V26.8928H19.6875C16.2065 26.8928 12.8681 28.2756 10.4067 30.737C7.94531 33.1985 6.5625 36.5369 6.5625 40.0178V85.9553C6.5625 89.4363 7.94531 92.7747 10.4067 95.2361C12.8681 97.6975 16.2065 99.0803 19.6875 99.0803H85.3125C88.7935 99.0803 92.1319 97.6975 94.5933 95.2361C97.0547 92.7747 98.4375 89.4363 98.4375 85.9553V40.0178C98.4375 36.5369 97.0547 33.1985 94.5933 30.737C92.1319 28.2756 88.7935 26.8928 85.3125 26.8928H77.1094V18.6897C77.1094 15.6439 75.8994 12.7228 73.7457 10.569C71.5919 8.41528 68.6708 7.20532 65.625 7.20532H39.375ZM67.2656 26.8928V18.6897C67.2656 18.2546 67.0928 17.8373 66.7851 17.5296C66.4774 17.2219 66.0601 17.0491 65.625 17.0491H39.375C38.9399 17.0491 38.5226 17.2219 38.2149 17.5296C37.9072 17.8373 37.7344 18.2546 37.7344 18.6897V26.8928H67.2656ZM19.6875 36.7366H85.3125C86.1827 36.7366 87.0173 37.0823 87.6327 37.6976C88.248 38.313 88.5938 39.1476 88.5938 40.0178V46.5803H16.4062V40.0178C16.4062 39.1476 16.752 38.313 17.3673 37.6976C17.9827 37.0823 18.8173 36.7366 19.6875 36.7366ZM16.4062 56.4241V85.9553C16.4062 86.8256 16.752 87.6602 17.3673 88.2755C17.9827 88.8909 18.8173 89.2366 19.6875 89.2366H85.3125C86.1827 89.2366 87.0173 88.8909 87.6327 88.2755C88.248 87.6602 88.5938 86.8256 88.5938 85.9553V56.4241H59.0625V66.2678H45.9375V56.4241H16.4062Z" fill="#F07038"/>
</svg>
